
<?xml version="1.0" encoding="UTF-8" standalone="no"?>
<!DOCTYPE svg PUBLIC "-//W3C//DTD SVG 1.1//EN"
 "http://www.w3.org/Graphics/SVG/1.1/DTD/svg11.dtd">
<!-- Generated by graphviz version 2.36.0 (20140111.2315)
 -->
<!-- Title: g Pages: 1 -->
<svg width="210pt" height="342pt"
 viewBox="0.00 0.00 210.00 342.00" xmlns="http://www.w3.org/2000/svg" xmlns:xlink="http://www.w3.org/1999/xlink">
<g id="graph0" class="graph" transform="scale(1 1) rotate(0) translate(4 338)">
<title>g</title>
<polygon fill="white" stroke="none" points="-4,4 -4,-338 206,-338 206,4 -4,4"/>
<!-- g1 -->
<g id="node1" class="node"><title>g1</title>
<polygon fill="gainsboro" stroke="black" points="70,-334 0,-334 0,-296 70,-296 70,-334"/>
<text text-anchor="middle" x="35" y="-318.8" font-family="Times,serif" font-size="14.00">light gray</text>
<text text-anchor="middle" x="35" y="-303.8" font-family="Times,serif" font-size="14.00">gainsboro</text>
</g>
<!-- g2 -->
<g id="node2" class="node"><title>g2</title>
<polygon fill="#565656" stroke="black" points="69,-260 1,-260 1,-222 69,-222 69,-260"/>
<text text-anchor="middle" x="35" y="-244.8" font-family="Times,serif" font-size="14.00" fill="white">dark gray</text>
<text text-anchor="middle" x="35" y="-229.8" font-family="Times,serif" font-size="14.00" fill="white">#565656</text>
</g>
<!-- g1&#45;&gt;g2 -->
<!-- p1 -->
<g id="node3" class="node"><title>p1</title>
<polygon fill="#c099de" stroke="black" points="178,-334 98,-334 98,-296 178,-296 178,-334"/>
<text text-anchor="middle" x="138" y="-318.8" font-family="Times,serif" font-size="14.00" fill="white">light purple</text>
<text text-anchor="middle" x="138" y="-303.8" font-family="Times,serif" font-size="14.00" fill="white">#C099DE</text>
</g>
<!-- p2 -->
<g id="node4" class="node"><title>p2</title>
<polygon fill="#ae73d1" stroke="black" points="188.25,-260 87.75,-260 87.75,-222 188.25,-222 188.25,-260"/>
<text text-anchor="middle" x="138" y="-244.8" font-family="Times,serif" font-size="14.00" fill="white">medium purple</text>
<text text-anchor="middle" x="138" y="-229.8" font-family="Times,serif" font-size="14.00" fill="white">#AE73D1</text>
</g>
<!-- p1&#45;&gt;p2 -->
<!-- p3 -->
<g id="node5" class="node"><title>p3</title>
<polygon fill="#a873d1" stroke="black" points="188.25,-186 87.75,-186 87.75,-148 188.25,-148 188.25,-186"/>
<text text-anchor="middle" x="138" y="-170.8" font-family="Times,serif" font-size="14.00" fill="white">medium purple</text>
<text text-anchor="middle" x="138" y="-155.8" font-family="Times,serif" font-size="14.00" fill="white">#A873D1</text>
</g>
<!-- p2&#45;&gt;p3 -->
<!-- p4 -->
<g id="node6" class="node"><title>p4</title>
<polygon fill="#9a61b1" stroke="black" points="202.25,-112 73.75,-112 73.75,-74 202.25,-74 202.25,-112"/>
<text text-anchor="middle" x="138" y="-96.8" font-family="Times,serif" font-size="14.00" fill="white">medium&#45;dark purple</text>
<text text-anchor="middle" x="138" y="-81.8" font-family="Times,serif" font-size="14.00" fill="white">#9A61B1</text>
</g>
<!-- p3&#45;&gt;p4 -->
<!-- p5 -->
<g id="node7" class="node"><title>p5</title>
<polygon fill="#825397" stroke="black" points="177.25,-38 98.75,-38 98.75,-0 177.25,-0 177.25,-38"/>
<text text-anchor="middle" x="138" y="-22.8" font-family="Times,serif" font-size="14.00" fill="white">dark purple</text>
<text text-anchor="middle" x="138" y="-7.8" font-family="Times,serif" font-size="14.00" fill="white">#825397</text>
</g>
<!-- p4&#45;&gt;p5 -->
</g>
</svg>
