<?xml version="1.0" encoding="UTF-8" standalone="no"?>
<!DOCTYPE svg PUBLIC "-//W3C//DTD SVG 1.1//EN"
 "http://www.w3.org/Graphics/SVG/1.1/DTD/svg11.dtd">
<!-- Generated by graphviz version 2.36.0 (20140111.2315)
 -->
<!-- Title: ClassDiagram Pages: 1 -->
<svg width="549pt" height="520pt"
 viewBox="0.00 0.00 549.00 520.00" xmlns="http://www.w3.org/2000/svg" xmlns:xlink="http://www.w3.org/1999/xlink">
<g id="graph0" class="graph" transform="scale(1 1) rotate(0) translate(4 516)">
<title>ClassDiagram</title>
<polygon fill="#ffffdd" stroke="none" points="-4,4 -4,-516 545,-516 545,4 -4,4"/>
<text text-anchor="middle" x="270.5" y="-496.8" font-family="Times,serif" font-size="14.00">Job Arguments</text>
<g id="clust1" class="cluster"><title>cluster_LinterJobArguments</title>
<polygon fill="#ffffff" stroke="black" stroke-dasharray="1,5" points="193,-8 193,-415 341,-415 341,-8 193,-8"/>
<text text-anchor="middle" x="267" y="-399.8" font-family="Times,serif" font-size="14.00">Linter Job</text>
</g>
<g id="clust2" class="cluster"><title>cluster_CompletedFileReviewJob</title>
<polygon fill="#ffffff" stroke="black" stroke-dasharray="1,5" points="372,-8 372,-481 541,-481 541,-8 372,-8"/>
<text text-anchor="middle" x="456.5" y="-465.8" font-family="Times,serif" font-size="14.00">Completed File Review Job</text>
</g>
<g id="clust3" class="cluster"><title>cluster_ReportInvalidConfigJob</title>
<polygon fill="#ffffff" stroke="black" stroke-dasharray="1,5" points="3,-74 3,-283 162,-283 162,-74 3,-74"/>
<text text-anchor="middle" x="82.5" y="-267.8" font-family="Times,serif" font-size="14.00">Report Invalid Config Job</text>
</g>
<!-- config -->
<g id="node1" class="node"><title>config</title>
<polygon fill="#b3cde3" stroke="black" points="240,-347 240,-383 294,-383 294,-347 240,-347"/>
<text text-anchor="middle" x="267" y="-361.3" font-family="Times,serif" font-size="14.00">config</text>
</g>
<!-- content -->
<g id="node2" class="node"><title>content</title>
<polygon fill="#b3cde3" stroke="black" points="239,-281 239,-317 295,-317 295,-281 239,-281"/>
<text text-anchor="middle" x="267" y="-295.3" font-family="Times,serif" font-size="14.00">content</text>
</g>
<!-- aFilename -->
<g id="node3" class="node"><title>aFilename</title>
<polygon fill="#b3cde3" stroke="black" points="234.5,-215 234.5,-251 299.5,-251 299.5,-215 234.5,-215"/>
<text text-anchor="middle" x="267" y="-229.3" font-family="Times,serif" font-size="14.00">filename</text>
</g>
<!-- bFilename -->
<g id="node10" class="node"><title>bFilename</title>
<polygon fill="#ccebc5" stroke="black" points="423.5,-215 423.5,-251 488.5,-251 488.5,-215 423.5,-215"/>
<text text-anchor="middle" x="456" y="-229.3" font-family="Times,serif" font-size="14.00">filename</text>
</g>
<!-- aFilename&#45;&gt;bFilename -->
<g id="edge4" class="edge"><title>aFilename&#45;&gt;bFilename</title>
<path fill="none" stroke="black" d="M299.722,-233C330.98,-233 378.91,-233 413.248,-233"/>
<polygon fill="black" stroke="black" points="413.435,-236.5 423.435,-233 413.435,-229.5 413.435,-236.5"/>
</g>
<!-- aCommit_sha -->
<g id="node4" class="node"><title>aCommit_sha</title>
<polygon fill="#b3cde3" stroke="black" points="225,-149 225,-185 309,-185 309,-149 225,-149"/>
<text text-anchor="middle" x="267" y="-163.3" font-family="Times,serif" font-size="14.00">commit_sha</text>
</g>
<!-- bCommit_sha -->
<g id="node11" class="node"><title>bCommit_sha</title>
<polygon fill="#ccebc5" stroke="black" points="426.5,-149 426.5,-185 485.5,-185 485.5,-149 426.5,-149"/>
<text text-anchor="middle" x="456" y="-163.3" font-family="Times,serif" font-size="14.00">commit</text>
</g>
<!-- aCommit_sha&#45;&gt;bCommit_sha -->
<g id="edge5" class="edge"><title>aCommit_sha&#45;&gt;bCommit_sha</title>
<path fill="none" stroke="black" d="M309.038,-167C340.914,-167 384.817,-167 416.13,-167"/>
<polygon fill="black" stroke="black" points="416.231,-170.5 426.231,-167 416.231,-163.5 416.231,-170.5"/>
</g>
<!-- aPull_request_number -->
<g id="node5" class="node"><title>aPull_request_number</title>
<polygon fill="#b3cde3" stroke="black" points="201,-83 201,-119 333,-119 333,-83 201,-83"/>
<text text-anchor="middle" x="267" y="-97.3" font-family="Times,serif" font-size="14.00">pull_request_number</text>
</g>
<!-- bPull_request_number -->
<g id="node12" class="node"><title>bPull_request_number</title>
<polygon fill="#ccebc5" stroke="black" points="390,-83 390,-119 522,-119 522,-83 390,-83"/>
<text text-anchor="middle" x="456" y="-97.3" font-family="Times,serif" font-size="14.00">pull_request_number</text>
</g>
<!-- aPull_request_number&#45;&gt;bPull_request_number -->
<g id="edge6" class="edge"><title>aPull_request_number&#45;&gt;bPull_request_number</title>
<path fill="none" stroke="black" d="M333.141,-101C348.186,-101 364.313,-101 379.75,-101"/>
<polygon fill="black" stroke="black" points="379.776,-104.5 389.776,-101 379.776,-97.5001 379.776,-104.5"/>
</g>
<!-- aPatch -->
<g id="node6" class="node"><title>aPatch</title>
<polygon fill="#b3cde3" stroke="black" points="240,-17 240,-53 294,-53 294,-17 240,-17"/>
<text text-anchor="middle" x="267" y="-31.3" font-family="Times,serif" font-size="14.00">patch</text>
</g>
<!-- bPatch -->
<g id="node13" class="node"><title>bPatch</title>
<polygon fill="#ccebc5" stroke="black" points="429,-17 429,-53 483,-53 483,-17 429,-17"/>
<text text-anchor="middle" x="456" y="-31.3" font-family="Times,serif" font-size="14.00">patch</text>
</g>
<!-- aPatch&#45;&gt;bPatch -->
<g id="edge7" class="edge"><title>aPatch&#45;&gt;bPatch</title>
<path fill="none" stroke="black" d="M294.002,-35C326.427,-35 382.044,-35 418.668,-35"/>
<polygon fill="black" stroke="black" points="418.919,-38.5001 428.919,-35 418.918,-31.5001 418.919,-38.5001"/>
</g>
<!-- violations -->
<g id="node7" class="node"><title>violations</title>
<polygon fill="#ccebc5" stroke="black" points="421,-413 421,-449 491,-449 491,-413 421,-413"/>
<text text-anchor="middle" x="456" y="-427.3" font-family="Times,serif" font-size="14.00">violations</text>
</g>
<!-- line -->
<g id="node8" class="node"><title>line</title>
<polygon fill="#ccebc5" stroke="black" points="429,-347 429,-383 483,-383 483,-347 429,-347"/>
<text text-anchor="middle" x="456" y="-361.3" font-family="Times,serif" font-size="14.00">line</text>
</g>
<!-- message -->
<g id="node9" class="node"><title>message</title>
<polygon fill="#ccebc5" stroke="black" points="424.5,-281 424.5,-317 487.5,-317 487.5,-281 424.5,-281"/>
<text text-anchor="middle" x="456" y="-295.3" font-family="Times,serif" font-size="14.00">message</text>
</g>
<!-- cFilename -->
<g id="node14" class="node"><title>cFilename</title>
<polygon fill="#fbb4ae" stroke="black" points="49.5,-215 49.5,-251 114.5,-251 114.5,-215 49.5,-215"/>
<text text-anchor="middle" x="82" y="-229.3" font-family="Times,serif" font-size="14.00">filename</text>
</g>
<!-- cFilename&#45;&gt;aFilename -->
<g id="edge1" class="edge"><title>cFilename&#45;&gt;aFilename</title>
<path fill="none" stroke="black" d="M125.224,-233C158.551,-233 204.306,-233 234.489,-233"/>
<polygon fill="black" stroke="black" points="124.876,-229.5 114.876,-233 124.876,-236.5 124.876,-229.5"/>
</g>
<!-- cCommit_sha -->
<g id="node15" class="node"><title>cCommit_sha</title>
<polygon fill="#fbb4ae" stroke="black" points="52.5,-149 52.5,-185 111.5,-185 111.5,-149 52.5,-149"/>
<text text-anchor="middle" x="82" y="-163.3" font-family="Times,serif" font-size="14.00">commit</text>
</g>
<!-- cCommit_sha&#45;&gt;aCommit_sha -->
<g id="edge2" class="edge"><title>cCommit_sha&#45;&gt;aCommit_sha</title>
<path fill="none" stroke="black" d="M121.76,-167C151.98,-167 193.855,-167 224.703,-167"/>
<polygon fill="black" stroke="black" points="121.594,-163.5 111.594,-167 121.594,-170.5 121.594,-163.5"/>
</g>
<!-- cPull_request_number -->
<g id="node16" class="node"><title>cPull_request_number</title>
<polygon fill="#fbb4ae" stroke="black" points="16,-83 16,-119 148,-119 148,-83 16,-83"/>
<text text-anchor="middle" x="82" y="-97.3" font-family="Times,serif" font-size="14.00">pull_request_number</text>
</g>
<!-- cPull_request_number&#45;&gt;aPull_request_number -->
<g id="edge3" class="edge"><title>cPull_request_number&#45;&gt;aPull_request_number</title>
<path fill="none" stroke="black" d="M158.222,-101C172.371,-101 187.057,-101 200.867,-101"/>
<polygon fill="black" stroke="black" points="158.034,-97.5001 148.034,-101 158.034,-104.5 158.034,-97.5001"/>
</g>
</g>
</svg>
